<svg width="5" height="5" viewBox="0 0 5 5" fill="none" xmlns="http://www.w3.org/2000/svg">
<path fill-rule="evenodd" clip-rule="evenodd" d="M2.50005 3.47505C2.75864 3.47505 3.00663 3.37233 3.18948 3.18948C3.37233 3.00663 3.47505 2.75864 3.47505 2.50005C3.47505 2.24146 3.37233 1.99347 3.18948 1.81062C3.00663 1.62777 2.75864 1.52505 2.50005 1.52505C2.24146 1.52505 1.99347 1.62777 1.81062 1.81062C1.62777 1.99347 1.52505 2.24146 1.52505 2.50005C1.52505 2.75864 1.62777 3.00663 1.81062 3.18948C1.99347 3.37233 2.24146 3.47505 2.50005 3.47505ZM2.50005 4.07505C2.70688 4.07505 2.91169 4.03431 3.10278 3.95516C3.29386 3.87601 3.46749 3.75999 3.61374 3.61374C3.75999 3.46749 3.87601 3.29386 3.95516 3.10278C4.03431 2.91169 4.07505 2.70688 4.07505 2.50005C4.07505 2.29322 4.03431 2.08841 3.95516 1.89732C3.87601 1.70623 3.75999 1.53261 3.61374 1.38636C3.46749 1.2401 3.29386 1.12409 3.10278 1.04494C2.91169 0.965787 2.70688 0.925049 2.50005 0.925049C2.08233 0.925049 1.68173 1.09099 1.38636 1.38636C1.09099 1.68173 0.925049 2.08233 0.925049 2.50005C0.925049 2.91776 1.09099 3.31837 1.38636 3.61374C1.68173 3.90911 2.08233 4.07505 2.50005 4.07505Z" fill="#111111"/>
</svg>
